<?xml version="1.0" encoding="UTF-8"?>
<svg width="9px" height="11px" viewBox="0 0 9 11" version="1.1" xmlns="http://www.w3.org/2000/svg" xmlns:xlink="http://www.w3.org/1999/xlink">
    <title>Icons / Down</title>
    <g id="Symbols" stroke="none" stroke-width="1" fill="none" fill-rule="evenodd">
        <g id="Cards-/-Up" transform="translate(-250.000000, -31.000000)" fill="#01C0AA">
            <g id="Group" transform="translate(249.000000, 31.000000)">
                <g id="Icons-/-Down" transform="translate(5.500000, 5.500000) scale(1, -1) translate(-5.500000, -5.500000) ">
                    <path d="M7.15708758,1.74074984 C7.03564202,1.86194448 7.03564202,2.05854479 7.15708758,2.17934973 L10.1735063,5.18973101 L0.310838155,5.18973101 C0.13921332,5.18973101 1.0658141e-14,5.32846185 1.0658141e-14,5.49992693 C1.0658141e-14,5.67100232 0.13921332,5.81012285 0.310838155,5.81012285 L10.1735063,5.81012285 L7.15728283,8.82050413 C7.03583727,8.94130908 7.03583727,9.13790938 7.15728283,9.25910402 C7.27853314,9.38029866 7.47534524,9.38029866 7.5967908,9.25910402 L10.7440271,6.11778577 C10.9092087,5.95314032 11,5.73374295 11,5.49992693 C11,5.26591606 10.9090135,5.04671354 10.7438319,4.8816784 L7.59659555,1.74074984 C7.47514999,1.61975005 7.27833789,1.61975005 7.15708758,1.74074984 Z" id="Shape" transform="translate(5.500000, 5.500000) rotate(-270.000000) translate(-5.500000, -5.500000) "></path>
                </g>
            </g>
        </g>
    </g>
</svg>